<svg width="238" height="85" viewBox="0 0 238 85" fill="none" xmlns="http://www.w3.org/2000/svg">
<g clip-path="url(#clip0_12427_73919)">
<g filter="url(#filter0_d_12427_73919)">
<path d="M166.812 79.8223V83.964H224.909V30.8613H220.483" fill="#D1CBFF"/>
<path d="M224.908 30.2246C225.26 30.2246 225.546 30.5096 225.546 30.8613V83.964C225.546 84.316 225.26 84.601 224.908 84.601H166.812C166.46 84.601 166.175 84.316 166.175 83.964V79.8223C166.175 79.4705 166.46 79.1855 166.812 79.1855C167.163 79.1855 167.448 79.4705 167.448 79.8223V83.327H224.271V31.498H220.482C220.131 31.498 219.846 31.2131 219.846 30.8613C219.846 30.5096 220.131 30.2247 220.482 30.2246H224.908Z" fill="black"/>
<path d="M162.212 75.016V79.151H220.31V26.0488H214.884" fill="#E9E7FE"/>
<path d="M220.309 25.4121C220.66 25.4121 220.946 25.6971 220.946 26.0488V79.1514C220.946 79.503 220.66 79.7881 220.309 79.7881H162.211C161.859 79.7881 161.574 79.503 161.574 79.1514V75.0156C161.574 74.664 161.859 74.3789 162.211 74.3789C162.563 74.3789 162.847 74.664 162.848 75.0156V78.5137H219.672V26.6855H214.883C214.531 26.6855 214.246 26.4005 214.246 26.0488C214.246 25.6971 214.531 25.4122 214.883 25.4121H220.309Z" fill="black"/>
<path d="M215.249 21.1816V74.2838H157.152V21.1816" fill="white"/>
<path d="M156.517 21.1816C156.517 20.8299 156.802 20.5449 157.153 20.5449C157.505 20.5449 157.79 20.8299 157.79 21.1816V73.6465H214.613V21.1816C214.613 20.83 214.898 20.5451 215.25 20.5449C215.602 20.5449 215.888 20.8299 215.888 21.1816V74.2842C215.888 74.6358 215.602 74.9209 215.25 74.9209H157.153C156.802 74.9209 156.517 74.6358 156.517 74.2842V21.1816Z" fill="black"/>
<path d="M211.675 0.365985C212.025 0.400985 212.28 0.713185 212.245 1.06328L211.196 11.5701C211.161 11.9201 210.848 12.1754 210.498 12.1404C210.148 12.1054 209.893 11.7931 209.928 11.4431L210.978 0.936286C211.013 0.586386 211.325 0.331085 211.675 0.365985Z" fill="black"/>
<g style="mix-blend-mode:multiply">
<path d="M214.847 48H180.847V74H214.847V48Z" fill="url(#paint0_linear_12427_73919)"/>
</g>
<g style="mix-blend-mode:multiply">
<path d="M181.332 19.1389H156.847V37.8645H181.332V19.1389Z" fill="url(#paint1_linear_12427_73919)"/>
</g>
<path d="M230.496 6.53338C230.73 6.27088 231.133 6.24778 231.396 6.48158C231.658 6.71558 231.681 7.11838 231.447 7.38098L220.329 19.8664C220.095 20.1288 219.693 20.152 219.43 19.9181C219.167 19.6842 219.144 19.2814 219.378 19.0187L230.496 6.53338Z" fill="black"/>
<path d="M236.776 26.2226C237.126 26.1843 237.441 26.4364 237.479 26.7861C237.518 27.1357 237.265 27.4499 236.915 27.4882L228.191 28.4433C227.842 28.4816 227.527 28.2295 227.489 27.8798C227.451 27.5302 227.703 27.216 228.053 27.1777L236.776 26.2226Z" fill="black"/>
<path d="M181.312 37.584L181.439 37.5967C181.73 37.656 181.948 37.9128 181.948 38.2207C181.948 38.5286 181.73 38.7854 181.439 38.8447L181.312 38.8574H157.153C156.802 38.8574 156.517 38.5725 156.517 38.2207C156.517 37.8689 156.802 37.584 157.153 37.584H181.312Z" fill="black"/>
<path d="M215.254 47.8926L215.382 47.9053C215.672 47.9646 215.891 48.2214 215.891 48.5293C215.891 48.8372 215.672 49.094 215.382 49.1533L215.254 49.166H181.677C181.325 49.166 181.04 48.8811 181.04 48.5293C181.04 48.1775 181.325 47.8926 181.677 47.8926H215.254Z" fill="black"/>
<path d="M180.675 74.2842V20.6641C180.675 20.3123 180.96 20.0273 181.312 20.0273C181.663 20.0273 181.948 20.3123 181.948 20.6641V74.2842C181.948 74.6358 181.663 74.9209 181.312 74.9209C180.96 74.9209 180.675 74.6358 180.675 74.2842Z" fill="black"/>
<path d="M177.267 41.8281C177.618 41.8281 177.903 42.1131 177.903 42.4648C177.903 42.8166 177.618 43.1016 177.267 43.1016H163.429C163.077 43.1016 162.792 42.8166 162.792 42.4648C162.792 42.1131 163.077 41.8281 163.429 41.8281H177.267Z" fill="black"/>
<path d="M160.9 43.2486C161.351 43.2486 161.717 42.8816 161.717 42.429C161.717 41.9763 161.351 41.6094 160.9 41.6094C160.449 41.6094 160.083 41.9763 160.083 42.429C160.083 42.8816 160.449 43.2486 160.9 43.2486Z" fill="#7565F1"/>
<path d="M177.267 47.1465C177.618 47.1465 177.903 47.4314 177.903 47.7832C177.903 48.135 177.618 48.4199 177.267 48.4199H163.429C163.077 48.4199 162.792 48.135 162.792 47.7832C162.792 47.4314 163.077 47.1465 163.429 47.1465H177.267Z" fill="black"/>
<path d="M160.9 48.5748C161.351 48.5748 161.717 48.2078 161.717 47.7552C161.717 47.3025 161.351 46.9355 160.9 46.9355C160.449 46.9355 160.083 47.3025 160.083 47.7552C160.083 48.2078 160.449 48.5748 160.9 48.5748Z" fill="#7565F1"/>
<path d="M177.267 52.4668C177.618 52.4668 177.903 52.7518 177.903 53.1035C177.903 53.4553 177.618 53.7402 177.267 53.7402H163.429C163.077 53.7402 162.792 53.4553 162.792 53.1035C162.792 52.7518 163.077 52.4668 163.429 52.4668H177.267Z" fill="black"/>
<path d="M160.9 53.8931C161.351 53.8931 161.717 53.5262 161.717 53.0735C161.717 52.6209 161.351 52.2539 160.9 52.2539C160.449 52.2539 160.083 52.6209 160.083 53.0735C160.083 53.5262 160.449 53.8931 160.9 53.8931Z" fill="#7565F1"/>
<path d="M177.267 57.791C177.618 57.791 177.903 58.076 177.903 58.4277C177.903 58.7795 177.618 59.0645 177.267 59.0645H163.429C163.077 59.0645 162.792 58.7795 162.792 58.4277C162.792 58.076 163.077 57.791 163.429 57.791H177.267Z" fill="black"/>
<path d="M160.9 59.2095C161.351 59.2095 161.717 58.8426 161.717 58.3899C161.717 57.9373 161.351 57.5703 160.9 57.5703C160.449 57.5703 160.083 57.9373 160.083 58.3899C160.083 58.8426 160.449 59.2095 160.9 59.2095Z" fill="#7565F1"/>
<path d="M177.267 63.1074C177.618 63.1074 177.903 63.3924 177.903 63.7441C177.903 64.0959 177.618 64.3809 177.267 64.3809H163.429C163.077 64.3809 162.792 64.0959 162.792 63.7441C162.792 63.3924 163.077 63.1074 163.429 63.1074H177.267Z" fill="black"/>
<path d="M160.9 64.5279C161.351 64.5279 161.717 64.1609 161.717 63.7083C161.717 63.2556 161.351 62.8887 160.9 62.8887C160.449 62.8887 160.083 63.2556 160.083 63.7083C160.083 64.1609 160.449 64.5279 160.9 64.5279Z" fill="#7565F1"/>
<path d="M161.133 15.6289H210.86C213.225 15.6289 215.146 17.5219 215.146 19.8536V20.3103H156.847V19.8536C156.847 17.5219 158.767 15.6289 161.133 15.6289Z" fill="#4A5FFC"/>
<path d="M183.856 49.0186C183.608 49.2675 183.205 49.2677 182.956 49.0195C182.707 48.7713 182.706 48.3683 182.954 48.1191L183.856 49.0186ZM191.559 39.748C191.728 39.7481 191.89 39.8155 192.01 39.9355L196.031 43.9785C196.279 44.2279 196.278 44.631 196.028 44.8789C195.779 45.1268 195.376 45.126 195.128 44.877L191.558 41.2871L183.856 49.0186L183.405 48.5684L182.954 48.1191L191.107 39.9355L191.204 39.8555C191.308 39.7858 191.431 39.748 191.559 39.748Z" fill="black"/>
<path d="M202.775 34.2188C202.945 34.2188 203.107 34.2864 203.227 34.4062L215.53 46.7558L215.611 46.8554C215.774 47.1029 215.746 47.4388 215.528 47.6561C215.31 47.8733 214.974 47.9 214.728 47.7362L214.628 47.6542L202.775 35.7568L194.865 43.6982C194.617 43.9474 194.214 43.9481 193.965 43.7001C193.716 43.4518 193.715 43.048 193.963 42.7988L202.324 34.4062L202.421 34.3261C202.525 34.2565 202.648 34.2188 202.775 34.2188Z" fill="black"/>
<path d="M192.185 26.541H192.178C189.893 26.541 188.041 28.4006 188.041 30.6945V30.7007C188.041 32.9946 189.893 34.8542 192.178 34.8542H192.185C194.47 34.8542 196.323 32.9946 196.323 30.7007V30.6945C196.323 28.4006 194.47 26.541 192.185 26.541Z" fill="url(#paint2_linear_12427_73919)"/>
<path d="M194.695 57.7305L202.228 61.693L194.695 65.6493V57.7305Z" fill="#F0FBFF"/>
</g>
<path d="M59.2516 24.5527V77.6549H1.1543V24.5527" fill="white"/>
<path d="M59.252 23.916C59.6035 23.9162 59.8887 24.2011 59.8887 24.5527V77.6553C59.8885 78.0068 59.6034 78.2918 59.252 78.292H1.1543C0.802649 78.292 0.517762 78.0069 0.517578 77.6553V24.5527C0.517578 24.201 0.802536 23.916 1.1543 23.916H59.252ZM1.79102 77.0176H58.6143V25.1895H1.79102V77.0176Z" fill="black"/>
<path d="M58.8477 29.7344C59.1994 29.7344 59.4844 30.0193 59.4844 30.3711C59.4844 30.7229 59.1994 31.0078 58.8477 31.0078H1.84766C1.4959 31.0078 1.21094 30.7229 1.21094 30.3711C1.21094 30.0193 1.4959 29.7344 1.84766 29.7344H58.8477Z" fill="black"/>
<path d="M22.8477 35.7344C23.1994 35.7344 23.4844 36.0193 23.4844 36.3711C23.4844 36.7229 23.1994 37.0078 22.8477 37.0078H10.8477C10.4959 37.0078 10.2109 36.7229 10.2109 36.3711C10.2109 36.0193 10.4959 35.7344 10.8477 35.7344H22.8477Z" fill="black"/>
<path d="M7.21094 30V25C7.21094 24.6482 7.4959 24.3633 7.84766 24.3633C8.19942 24.3633 8.48438 24.6482 8.48438 25V30C8.48438 30.3518 8.19942 30.6367 7.84766 30.6367C7.4959 30.6367 7.21094 30.3518 7.21094 30Z" fill="black"/>
<path d="M10.6642 41.0103C11.1152 41.0103 11.4808 40.6434 11.4808 40.1907C11.4808 39.738 11.1152 39.3711 10.6642 39.3711C10.2132 39.3711 9.84766 39.738 9.84766 40.1907C9.84766 40.6434 10.2132 41.0103 10.6642 41.0103Z" fill="#7565F1"/>
<path d="M76.0928 49.7022C75.9284 50.012 76.0463 50.3964 76.3561 50.5608C76.6659 50.7251 77.0503 50.6073 77.2146 50.2975L76.0928 49.7022ZM76.6537 49.9998L77.2146 50.2975C89.9815 26.2369 123.357 24.2495 138.606 50.3201L139.154 49.9995L139.702 49.6789C123.951 22.7496 89.3259 24.7631 76.0928 49.7022L76.6537 49.9998Z" fill="black"/>
<path d="M141.234 37.8702C141.581 37.9139 141.828 38.2313 141.784 38.5792L140.196 51.2833L127.006 48.1173L126.885 48.0753C126.617 47.9502 126.466 47.6501 126.537 47.3517C126.609 47.0535 126.88 46.8555 127.175 46.8653L127.303 46.8829L139.112 49.7169L140.525 38.421C140.568 38.0732 140.886 37.8267 141.234 37.8702Z" fill="black"/>
<path d="M110.037 48.2031L113.154 47L114.302 43.9375C114.357 43.6641 114.63 43.5 114.904 43.5C115.123 43.5 115.396 43.6641 115.451 43.9375L116.654 47L119.716 48.2031C119.99 48.2578 120.154 48.5312 120.154 48.75C120.154 49.0234 119.99 49.2969 119.716 49.3516L116.654 50.5L115.451 53.6172C115.396 53.8359 115.123 54 114.904 54C114.63 54 114.357 53.8359 114.302 53.6172L113.154 50.5L110.037 49.3516C109.818 49.2969 109.654 49.0234 109.654 48.75C109.654 48.5312 109.818 48.2578 110.037 48.2031ZM103.365 47.5469L106.208 53.7812L112.443 56.625C112.771 56.7891 112.99 57.1172 112.99 57.4453C112.99 57.7734 112.771 58.1016 112.443 58.2109L106.208 61.1094L103.365 67.3438C103.201 67.6719 102.873 67.8906 102.544 67.8906C102.216 67.8906 101.888 67.6719 101.779 67.3438L98.8809 61.1094L92.6465 58.2656C92.3184 58.1016 92.1543 57.7734 92.1543 57.4453C92.1543 57.1172 92.3184 56.7891 92.6465 56.625L98.8809 53.7812L101.779 47.5469C101.888 47.2188 102.216 47 102.544 47C102.873 47 103.201 47.2188 103.365 47.5469ZM113.154 64.5L114.302 61.4375C114.357 61.1641 114.63 61 114.904 61C115.123 61 115.396 61.1641 115.451 61.4375L116.654 64.5L119.716 65.7031C119.99 65.7578 120.154 66.0312 120.154 66.25C120.154 66.5234 119.99 66.7969 119.716 66.8516L116.654 68L115.451 71.1172C115.396 71.3359 115.123 71.5 114.904 71.5C114.63 71.5 114.357 71.3359 114.302 71.1172L113.154 68L110.037 66.8516C109.818 66.7969 109.654 66.5234 109.654 66.25C109.654 66.0312 109.818 65.7578 110.037 65.7031L113.154 64.5Z" fill="url(#paint3_linear_12427_73919)"/>
</g>
<defs>
<filter id="filter0_d_12427_73919" x="136.517" y="-19.6372" width="120.967" height="124.238" filterUnits="userSpaceOnUse" color-interpolation-filters="sRGB">
<feFlood flood-opacity="0" result="BackgroundImageFix"/>
<feColorMatrix in="SourceAlpha" type="matrix" values="0 0 0 0 0 0 0 0 0 0 0 0 0 0 0 0 0 0 127 0" result="hardAlpha"/>
<feOffset/>
<feGaussianBlur stdDeviation="10"/>
<feComposite in2="hardAlpha" operator="out"/>
<feColorMatrix type="matrix" values="0 0 0 0 1 0 0 0 0 1 0 0 0 0 1 0 0 0 0.25 0"/>
<feBlend mode="normal" in2="BackgroundImageFix" result="effect1_dropShadow_12427_73919"/>
<feBlend mode="normal" in="SourceGraphic" in2="effect1_dropShadow_12427_73919" result="shape"/>
</filter>
<linearGradient id="paint0_linear_12427_73919" x1="214.847" y1="48" x2="179.595" y2="49.8259" gradientUnits="userSpaceOnUse">
<stop offset="0.26" stop-color="#D2F1FE"/>
<stop offset="0.87" stop-color="#EFCCFF"/>
</linearGradient>
<linearGradient id="paint1_linear_12427_73919" x1="181.332" y1="19.1389" x2="155.945" y2="20.4538" gradientUnits="userSpaceOnUse">
<stop offset="0.26" stop-color="#D2F1FE"/>
<stop offset="0.87" stop-color="#EFCCFF"/>
</linearGradient>
<linearGradient id="paint2_linear_12427_73919" x1="196.323" y1="26.541" x2="187.726" y2="26.8803" gradientUnits="userSpaceOnUse">
<stop offset="0.26" stop-color="#D2F1FE"/>
<stop offset="0.87" stop-color="#EFCCFF"/>
</linearGradient>
<linearGradient id="paint3_linear_12427_73919" x1="90.5446" y1="73" x2="121.939" y2="71.8169" gradientUnits="userSpaceOnUse">
<stop stop-color="#9C15FF"/>
<stop offset="1" stop-color="#1EB4FB"/>
</linearGradient>
<clipPath id="clip0_12427_73919">
<rect width="238" height="85" fill="white"/>
</clipPath>
</defs>
</svg>
